<svg width="219" height="219" viewBox="0 0 219 219" fill="none" xmlns="http://www.w3.org/2000/svg">
<g clip-path="url(#clip0_271_190)">
<circle cx="109.5" cy="109.5" r="109.5" fill="white"/>
<path opacity="0.95" d="M71.1606 160.303C92.631 160.303 110.036 142.898 110.036 121.427C110.036 99.9568 92.631 82.5518 71.1606 82.5518C49.6903 82.5518 32.2852 99.9568 32.2852 121.427C32.2852 142.898 49.6903 160.303 71.1606 160.303Z" fill="#4CE7FF"/>
<path opacity="0.95" d="M110.038 160.47C139.4 160.47 163.202 136.668 163.202 107.306C163.202 77.9451 139.4 54.1431 110.038 54.1431C80.6771 54.1431 56.875 77.9451 56.875 107.306C56.875 136.668 80.6771 160.47 110.038 160.47Z" fill="#0067C2"/>
<path opacity="0.95" d="M148.911 160.303C170.381 160.303 187.786 142.898 187.786 121.427C187.786 99.9568 170.381 82.5518 148.911 82.5518C127.44 82.5518 110.035 99.9568 110.035 121.427C110.035 142.898 127.44 160.303 148.911 160.303Z" fill="#4CE7FF"/>
</g>
<defs>
<clipPath id="clip0_271_190">
<rect width="219" height="219" fill="white"/>
</clipPath>
</defs>
</svg>
