<svg width="228" height="36" viewBox="0 0 228 36" fill="none" xmlns="http://www.w3.org/2000/svg">
<path d="M47.1496 24.3999V11.6199H53.9896C56.6536 11.6199 58.0936 12.9879 58.0936 15.0399C58.0936 16.4799 57.0676 17.3799 56.0956 17.6499C57.3016 17.9739 58.4176 18.9819 58.4176 20.7459C58.4176 22.9599 56.8876 24.3999 53.9356 24.3999H47.1496ZM53.4856 14.0859H50.1556V16.6059H53.4856C54.4036 16.6059 54.9796 16.1919 54.9796 15.3459C54.9796 14.4639 54.4036 14.0859 53.4856 14.0859ZM53.3956 19.0719H50.1556V21.9339H53.3956C54.6556 21.9339 55.3036 21.4299 55.3036 20.4759C55.3036 19.5759 54.6556 19.0719 53.3956 19.0719ZM64.7117 14.8419C67.5377 14.8419 69.3017 16.7499 69.3017 19.7379V20.2419H62.9837C63.0557 21.4659 63.7577 22.3119 64.9097 22.3119C65.8637 22.3119 66.2417 21.8079 66.3677 21.6279H69.2477C69.1217 22.7619 67.9877 24.6339 64.9097 24.6339C61.9217 24.6339 60.1217 22.6359 60.1217 19.7379C60.1217 16.8039 61.9577 14.8419 64.7117 14.8419ZM64.7117 16.9479C63.7577 16.9479 63.1637 17.5599 63.0197 18.5139H66.3857C66.2237 17.5419 65.6297 16.9479 64.7117 16.9479ZM77.38 23.1579C77.218 23.4999 76.462 24.5979 74.734 24.5979C72.538 24.5979 70.81 22.7979 70.81 19.7379C70.81 16.6779 72.538 14.8779 74.734 14.8779C76.444 14.8779 77.2 15.9759 77.344 16.2459V11.1519H80.242V24.3999H77.38V23.1579ZM77.38 19.7379C77.38 18.3519 76.696 17.3619 75.562 17.3619C74.428 17.3619 73.744 18.3519 73.744 19.7379C73.744 21.1239 74.428 22.1139 75.562 22.1139C76.696 22.1139 77.38 21.1239 77.38 19.7379ZM85.6541 19.7919V24.3999H82.7561V15.0759H85.6541V16.4439C85.8881 15.9579 86.5721 15.0579 88.3541 15.0579H89.9561V17.9379H87.8141C86.2841 17.9379 85.6541 18.5319 85.6541 19.7919ZM96.0041 14.8419C98.7761 14.8419 100.756 16.7679 100.756 19.7379C100.756 22.6899 98.7761 24.6339 96.0041 24.6339C93.2321 24.6339 91.2701 22.6899 91.2701 19.7379C91.2701 16.7679 93.2321 14.8419 96.0041 14.8419ZM96.0041 22.1679C97.2101 22.1679 97.8221 21.1239 97.8221 19.7379C97.8221 18.3699 97.2101 17.3259 96.0041 17.3259C94.8161 17.3259 94.1861 18.3699 94.1861 19.7379C94.1861 21.1239 94.7981 22.1679 96.0041 22.1679ZM108.25 18.2439C108.142 17.9919 107.8 17.3619 106.846 17.3619C105.838 17.3619 105.226 18.3519 105.226 19.7379C105.226 21.1239 105.838 22.1319 106.864 22.1319C107.8 22.1319 108.142 21.4659 108.25 21.2319H111.04C110.95 22.5279 109.834 24.6339 106.792 24.6339C104.2 24.6339 102.292 22.7079 102.292 19.7379C102.292 16.7859 104.2 14.8419 106.756 14.8419C109.744 14.8419 110.932 16.9119 111.04 18.2439H108.25ZM119.166 24.3999L115.854 20.3139V24.3999H112.938V11.1519H115.854V18.7479L118.932 15.0759H122.424L118.788 19.3779L122.802 24.3999H119.166ZM128.73 24.3999V11.6199H135.21C138.108 11.6199 139.8 13.0239 139.8 15.7059C139.8 18.3519 138.108 19.8279 135.21 19.8279H131.772V24.3999H128.73ZM134.904 14.2839H131.772V17.1639H134.904C136.092 17.1639 136.668 16.6059 136.668 15.7239C136.668 14.7699 136.092 14.2839 134.904 14.2839ZM145.624 14.8419C148.45 14.8419 150.214 16.7499 150.214 19.7379V20.2419H143.896C143.968 21.4659 144.67 22.3119 145.822 22.3119C146.776 22.3119 147.154 21.8079 147.28 21.6279H150.16C150.034 22.7619 148.9 24.6339 145.822 24.6339C142.834 24.6339 141.034 22.6359 141.034 19.7379C141.034 16.8039 142.87 14.8419 145.624 14.8419ZM145.624 16.9479C144.67 16.9479 144.076 17.5599 143.932 18.5139H147.298C147.136 17.5419 146.542 16.9479 145.624 16.9479ZM155.07 19.7919V24.3999H152.172V15.0759H155.07V16.4439C155.304 15.9579 155.988 15.0579 157.77 15.0579H159.372V17.9379H157.23C155.7 17.9379 155.07 18.5319 155.07 19.7919ZM168.228 17.4699H165.474V24.3999H162.558V17.4699H160.38V15.0759H162.558V13.8159C162.558 12.1779 163.512 11.1519 165.456 11.1519H169.308V13.3479H166.662C165.798 13.3479 165.474 13.7079 165.474 14.4999V15.0759H168.228V17.4699ZM173.977 14.8419C176.803 14.8419 178.567 16.7499 178.567 19.7379V20.2419H172.249C172.321 21.4659 173.023 22.3119 174.175 22.3119C175.129 22.3119 175.507 21.8079 175.633 21.6279H178.513C178.387 22.7619 177.253 24.6339 174.175 24.6339C171.187 24.6339 169.387 22.6359 169.387 19.7379C169.387 16.8039 171.223 14.8419 173.977 14.8419ZM173.977 16.9479C173.023 16.9479 172.429 17.5599 172.285 18.5139H175.651C175.489 17.5419 174.895 16.9479 173.977 16.9479ZM185.998 18.2439C185.89 17.9919 185.548 17.3619 184.594 17.3619C183.586 17.3619 182.974 18.3519 182.974 19.7379C182.974 21.1239 183.586 22.1319 184.612 22.1319C185.548 22.1319 185.89 21.4659 185.998 21.2319H188.788C188.698 22.5279 187.582 24.6339 184.54 24.6339C181.948 24.6339 180.04 22.7079 180.04 19.7379C180.04 16.7859 181.948 14.8419 184.504 14.8419C187.492 14.8419 188.68 16.9119 188.788 18.2439H185.998ZM197.814 21.8259V24.3999H195.204C193.062 24.3999 192.072 23.3559 192.072 21.4479V17.5059H189.894V15.0759H192.072V11.6199H194.988V15.0759H197.814V17.5059H194.988V20.4399C194.988 21.3939 195.294 21.8259 196.374 21.8259H197.814ZM203.878 14.8419C206.704 14.8419 208.468 16.7499 208.468 19.7379V20.2419H202.15C202.222 21.4659 202.924 22.3119 204.076 22.3119C205.03 22.3119 205.408 21.8079 205.534 21.6279H208.414C208.288 22.7619 207.154 24.6339 204.076 24.6339C201.088 24.6339 199.288 22.6359 199.288 19.7379C199.288 16.8039 201.124 14.8419 203.878 14.8419ZM203.878 16.9479C202.924 16.9479 202.33 17.5599 202.186 18.5139H205.552C205.39 17.5419 204.796 16.9479 203.878 16.9479ZM216.546 23.1579C216.384 23.4999 215.628 24.5979 213.9 24.5979C211.704 24.5979 209.976 22.7979 209.976 19.7379C209.976 16.6779 211.704 14.8779 213.9 14.8779C215.61 14.8779 216.366 15.9759 216.51 16.2459V11.1519H219.408V24.3999H216.546V23.1579ZM216.546 19.7379C216.546 18.3519 215.862 17.3619 214.728 17.3619C213.594 17.3619 212.91 18.3519 212.91 19.7379C212.91 21.1239 213.594 22.1139 214.728 22.1139C215.862 22.1139 216.546 21.1239 216.546 19.7379Z" fill="white"/>
<path d="M17.1583 21.0426C16.4012 21.4892 15.6548 21.9295 14.9126 22.3674C14.786 22.3146 7.39487 17.9606 7.19922 17.8247C7.19915 17.7725 7.24675 17.7656 7.27818 17.747C7.82271 17.4243 8.36799 17.1029 8.91309 16.7812C10.352 15.932 11.7908 15.0827 13.2298 14.2336C13.7503 13.9265 14.2713 13.62 14.7923 13.3135C14.8263 13.2935 14.862 13.2763 14.9034 13.2544C17.4674 14.7667 20.0304 16.2785 22.5868 17.7864C22.5963 17.8532 22.5491 17.8623 22.5176 17.8811C22.2038 18.0674 21.8892 18.2525 21.5749 18.438C20.7105 18.9479 19.8461 19.4579 18.9817 19.9678C18.3775 20.3241 17.7732 20.6801 17.1583 21.0426Z" fill="white"/>
<path d="M21.9296 19.1716C22.1703 19.0283 22.4001 18.8912 22.6305 18.7553C22.7524 18.6834 22.8755 18.6136 22.9946 18.5449C23.0496 18.5738 23.0397 18.6199 23.0305 18.6541C23.0016 18.7609 23.0078 18.869 23.0078 18.977C23.0075 21.7954 23.0076 24.6138 23.0076 27.4322C23.0076 27.5004 23.0076 27.5687 23.0076 27.6356C22.9571 27.6912 22.8987 27.7252 22.8397 27.7596C22.6136 27.8917 22.3885 28.0256 22.1627 28.1582C21.922 28.2993 21.6805 28.4389 21.4402 28.5806C21.2342 28.7021 21.0301 28.8266 20.8241 28.948C20.5837 29.0896 20.3419 29.2287 20.1014 29.3701C19.9002 29.4885 19.7006 29.6094 19.4995 29.7279C19.2542 29.8725 19.0078 30.015 18.7626 30.1596C18.5616 30.2782 18.362 30.3993 18.1609 30.5178C17.9157 30.6624 17.6692 30.8048 17.4238 30.9491C17.2275 31.0646 17.0325 31.1822 16.8363 31.2978C16.5862 31.4452 16.335 31.591 16.0851 31.7387C15.8841 31.8575 15.6841 31.9778 15.4841 32.0981C15.4362 32.1269 15.3924 32.1656 15.3186 32.1557C15.3129 32.1294 15.304 32.1037 15.3024 32.0777C15.2996 32.0322 15.3012 31.9864 15.3012 31.9408C15.3012 29.0539 15.3012 26.167 15.3012 23.2801C15.3012 23.2177 15.3012 23.1552 15.3012 23.0862C15.3694 23.0417 15.4338 22.9961 15.5015 22.956C15.9424 22.6948 16.3836 22.4342 16.8254 22.1747C17.115 22.0045 17.4065 21.8375 17.6959 21.667C18.0392 21.4647 18.3807 21.2591 18.724 21.0568C19.0232 20.8804 19.3243 20.7073 19.6236 20.5312C19.9573 20.3348 20.2896 20.1362 20.6231 19.9396C20.9271 19.7602 21.232 19.5823 21.5364 19.4036C21.664 19.3287 21.7915 19.2534 21.9296 19.1716Z" fill="white" fill-opacity="0.65"/>
<path d="M27.3727 15.9082C27.61 15.77 27.8371 15.639 28.0633 15.5066C28.378 15.3224 28.6921 15.1371 29.0063 14.9521C29.3745 14.7352 29.742 14.5172 30.1108 14.3014C30.4895 14.0798 30.8696 13.8607 31.2486 13.6396C31.4159 13.542 31.5817 13.4419 31.7488 13.3439C31.7979 13.3151 31.8491 13.2899 31.9107 13.2568C31.9615 13.2832 32.0177 13.3094 32.0709 13.3406C32.5184 13.6026 32.9654 13.8653 33.4122 14.1283C33.8394 14.3797 34.2658 14.6325 34.6935 14.8831C35.0721 15.1049 35.4524 15.3237 35.831 15.5453C36.1113 15.7093 36.3896 15.8768 36.6698 16.041C37.0483 16.2628 37.4281 16.4826 37.8069 16.7039C38.0677 16.8562 38.3279 17.0094 38.5882 17.1624C38.9075 17.3501 39.2267 17.5378 39.5459 17.7257C39.5653 17.7371 39.5836 17.7504 39.599 17.7605C39.6104 17.8031 39.5811 17.8154 39.558 17.8294C39.412 17.9181 39.2662 18.0074 39.1188 18.0939C38.8239 18.2668 38.5276 18.4374 38.2325 18.6101C37.9178 18.7943 37.6039 18.9799 37.2896 19.1647C36.7838 19.4622 36.2783 19.7603 35.7718 20.0568C35.3932 20.2785 35.0128 20.4971 34.6341 20.7188C34.3539 20.8828 34.0758 21.0506 33.7956 21.2148C33.4171 21.4366 33.0372 21.6562 32.6583 21.8773C32.4417 22.0036 32.2242 22.1285 32.0104 22.2593C31.9442 22.2998 31.8929 22.3065 31.823 22.2649C31.3481 21.9822 30.8711 21.703 30.394 21.424C30.0152 21.2026 29.6351 20.9834 29.2561 20.7623C28.9904 20.6073 28.7254 20.4509 28.4602 20.2949C28.1507 20.113 27.8413 19.9311 27.532 19.749C27.1637 19.5322 26.7961 19.3144 26.4273 19.0986C26.0486 18.877 25.6683 18.6582 25.2896 18.4366C25.0093 18.2725 24.7307 18.1058 24.451 17.9407C24.3732 17.8947 24.2945 17.8502 24.2031 17.7976C24.2312 17.769 24.2462 17.746 24.2674 17.7335C24.6548 17.5044 25.043 17.2766 25.4309 17.0483C25.8041 16.8287 26.177 16.6085 26.5504 16.3893C26.8206 16.2306 27.0915 16.073 27.3727 15.9082Z" fill="white" fill-opacity="0.65"/>
<path d="M31.46 31.9933C31.4144 31.9708 31.3673 31.951 31.3235 31.9254C30.6295 31.5192 29.9358 31.1124 29.2421 30.7056C28.8886 30.4983 28.5354 30.2906 28.1819 30.0834C27.858 29.8935 27.5337 29.7041 27.2097 29.5142C26.871 29.3156 26.5326 29.1164 26.1939 28.9178C25.8699 28.7278 25.5456 28.5385 25.2216 28.3486C24.8828 28.15 24.5444 27.9509 24.2056 27.7523C24.0836 27.6807 23.961 27.61 23.8377 27.5384C23.8176 27.4666 23.8259 27.3981 23.8259 27.3309C23.8254 25.0654 23.8254 22.7999 23.8256 20.5344C23.8256 19.8895 23.8263 19.2447 23.8401 18.5823C23.8603 18.5621 23.867 18.5594 23.8737 18.5566C23.919 18.5802 23.9654 18.602 24.0095 18.6278C24.3829 18.846 24.7559 19.0648 25.1291 19.2836C25.453 19.4735 25.7769 19.6634 26.1008 19.8534C26.4345 20.0491 26.7682 20.245 27.1019 20.4406C27.4308 20.6334 27.7597 20.8261 28.0886 21.0188C29.1703 21.6526 30.252 22.2863 31.3336 22.9203C31.3871 22.9517 31.4394 22.9853 31.4969 23.0208C31.4969 23.0716 31.4969 23.1167 31.4969 23.1618C31.4969 26.0718 31.4968 28.9819 31.4967 31.892C31.4967 31.9034 31.4961 31.9148 31.4861 31.9461C31.4678 31.9732 31.4623 31.9823 31.46 31.9933Z" fill="white"/>
<path d="M31.4897 3.63694C31.4914 3.69961 31.4945 3.76229 31.4945 3.82497C31.4948 6.66669 31.4948 9.50842 31.4948 12.3501C31.4948 12.4126 31.4948 12.4751 31.4948 12.5438C31.3068 12.6751 31.1034 12.7757 30.9108 12.8938C30.7163 13.013 30.5178 13.1256 30.3211 13.2411C30.1251 13.3561 29.9296 13.4718 29.733 13.5858C29.5314 13.7028 29.3278 13.8166 29.1267 13.9346C28.9301 14.0498 28.7359 14.1693 28.5398 14.2854C28.3443 14.4012 28.1477 14.5151 27.9516 14.6299C27.7548 14.7453 27.5581 14.8608 27.3613 14.9762C27.1653 15.0911 26.9699 15.2071 26.773 15.3206C26.5757 15.4343 26.3755 15.5429 26.1792 15.6582C25.978 15.7764 25.7807 15.9013 25.5802 16.0209C25.3851 16.1373 25.188 16.2505 24.9919 16.3654C24.7951 16.4806 24.5985 16.5964 24.4015 16.7114C24.2062 16.8255 24.0104 16.9389 23.8204 17.0494C23.7731 17.0319 23.7842 16.999 23.7827 16.9736C23.7801 16.9281 23.7818 16.8823 23.7818 16.8367C23.7817 14.0007 23.7817 11.1646 23.7819 8.32863C23.7819 8.25502 23.7844 8.18141 23.7855 8.12106C24.0464 7.9629 24.2938 7.81208 24.5423 7.66292C24.6053 7.62508 24.6727 7.59449 24.7361 7.55721C25.0696 7.36103 25.4025 7.16361 25.7357 6.96691C26.1819 6.70358 26.6282 6.44053 27.0744 6.17734C27.5199 5.91459 27.9654 5.65182 28.411 5.38905C28.8565 5.12629 29.302 4.86352 29.7475 4.60076C30.193 4.338 30.6385 4.07513 31.0841 3.81255C31.1864 3.75227 31.2893 3.69303 31.4156 3.63281C31.4561 3.63386 31.4729 3.6354 31.4897 3.63694Z" fill="white"/>
<path d="M22.9269 17.0306C22.8608 16.9979 22.7924 16.9692 22.729 16.932C22.3011 16.681 21.8743 16.4284 21.4472 16.1761C21.0643 15.95 20.6815 15.7236 20.2987 15.4974C19.8765 15.248 19.4543 14.9988 19.0322 14.7493C18.5512 14.4651 18.0707 14.18 17.5893 13.8964C17.0981 13.607 16.606 13.3192 16.1144 13.0303C15.8588 12.8801 15.6046 12.7275 15.3477 12.5796C15.2861 12.5442 15.2531 12.502 15.2592 12.4299C15.2625 12.3902 15.2597 12.35 15.2597 12.3101C15.2597 9.47917 15.2596 6.64828 15.2602 3.81738C15.2602 3.75055 15.2493 3.68201 15.2739 3.61357C15.2944 3.61481 15.3139 3.61023 15.3264 3.61758C17.8722 5.11345 20.4138 6.61635 22.9634 8.11941C22.9652 8.19369 22.9681 8.26119 22.9681 8.32868C22.9684 9.56149 22.9683 10.7943 22.9683 12.0271C22.9683 13.6138 22.9683 15.2005 22.9682 16.7871C22.9682 16.8556 22.9672 16.9241 22.9555 17.0096C22.9386 17.0279 22.9328 17.0293 22.9269 17.0306Z" fill="white" fill-opacity="0.65"/>
<path d="M31.4936 3.62601C31.476 3.63631 31.4591 3.63475 31.4297 3.63039C31.4393 3.6029 31.462 3.58085 31.4936 3.62601Z" fill="white"/>
<path d="M22.9375 17.0376C22.9387 17.0303 22.9448 17.0289 22.96 17.0264C22.9602 17.0313 22.9513 17.0373 22.9375 17.0376Z" fill="white" fill-opacity="0.65"/>
<path d="M23.8717 18.5499C23.8711 18.5595 23.8643 18.5623 23.8466 18.5669C23.8318 18.5442 23.8418 18.5357 23.8717 18.5499Z" fill="white" fill-opacity="0.65"/>
<path d="M31.4767 31.9978C31.468 31.984 31.4737 31.9746 31.4899 31.9629C31.494 31.9726 31.4909 31.9864 31.4767 31.9978Z" fill="white" fill-opacity="0.65"/>
</svg>
