<svg width="170" height="35" viewBox="0 0 170 35" fill="none" xmlns="http://www.w3.org/2000/svg">
<path d="M42.35 21.67C42.1575 22.0725 41.4225 23.1925 39.725 23.1925C37.6075 23.1925 35.9275 21.4775 35.9275 18.5725C35.9275 15.65 37.6075 13.935 39.725 13.935C41.405 13.935 42.1575 15.055 42.3325 15.405V10.12H44.555V23H42.35V21.67ZM42.3675 18.5725C42.3675 17.0325 41.5625 15.895 40.2675 15.895C38.9725 15.895 38.2025 17.0325 38.2025 18.5725C38.2025 20.095 38.9725 21.25 40.2675 21.25C41.5625 21.25 42.3675 20.095 42.3675 18.5725ZM53.1121 21.705C52.9196 22.1075 52.2196 23.1925 50.5921 23.1925C48.4746 23.1925 46.8821 21.4775 46.8821 18.5725C46.8821 15.685 48.4746 13.9525 50.5921 13.9525C52.2371 13.9525 52.9196 15.055 53.0946 15.4225V14.145H55.3171V23H53.1121V21.705ZM53.1296 18.5725C53.1296 17.015 52.3946 15.9125 51.1521 15.9125C49.8746 15.9125 49.1571 17.015 49.1571 18.5725C49.1571 20.1475 49.8746 21.25 51.1521 21.25C52.3946 21.25 53.1296 20.1475 53.1296 18.5725ZM60.3783 18.0475V23H58.1558V14.145H60.3783V15.4225C60.6933 14.81 61.5508 13.9525 62.9683 13.9525C64.9808 13.9525 66.3108 15.37 66.3108 17.645V23H64.0708V18.0475C64.0708 16.6825 63.3708 15.9475 62.2508 15.9475C61.0783 15.9475 60.3783 16.7175 60.3783 18.0475ZM69.0412 12.7275V10.0675H71.3687V12.7275H69.0412ZM69.0762 23V14.145H71.3162V23H69.0762ZM78.0544 19.535L76.9169 19.4125C75.0444 19.2025 73.6794 18.3975 73.6794 16.6475C73.6794 14.95 75.1494 13.9 77.3369 13.9C80.3644 13.9 81.1694 15.545 81.3619 16.3675H79.1569C79.0519 16.1925 78.5444 15.5975 77.3544 15.5975C76.3744 15.5975 75.8844 15.9825 75.8844 16.525C75.8844 17.085 76.3044 17.365 77.1444 17.4525L78.1944 17.5575C80.5044 17.785 81.5369 18.695 81.5369 20.4275C81.5369 22.1075 80.2419 23.245 77.7569 23.245C74.6244 23.245 73.6094 21.4425 73.4694 20.5675H75.7444C75.8494 20.7775 76.3394 21.5125 77.7569 21.5125C78.7894 21.5125 79.3144 21.1275 79.3144 20.55C79.3144 19.955 78.9994 19.64 78.0544 19.535ZM91.4401 23.0525L89.5676 17.0325L87.6776 23.0525H85.5951L82.6026 14.145H85.0001L86.8026 19.99L88.6226 14.0925H90.7051L92.5426 19.9725L94.3101 14.145H96.4451L93.5751 23.0525H91.4401ZM103.937 21.705C103.745 22.1075 103.045 23.1925 101.417 23.1925C99.2998 23.1925 97.7073 21.4775 97.7073 18.5725C97.7073 15.685 99.2998 13.9525 101.417 13.9525C103.062 13.9525 103.745 15.055 103.92 15.4225V14.145H106.142V23H103.937V21.705ZM103.955 18.5725C103.955 17.015 103.22 15.9125 101.977 15.9125C100.7 15.9125 99.9823 17.015 99.9823 18.5725C99.9823 20.1475 100.7 21.25 101.977 21.25C103.22 21.25 103.955 20.1475 103.955 18.5725ZM112.883 19.535L111.746 19.4125C109.873 19.2025 108.508 18.3975 108.508 16.6475C108.508 14.95 109.978 13.9 112.166 13.9C115.193 13.9 115.998 15.545 116.191 16.3675H113.986C113.881 16.1925 113.373 15.5975 112.183 15.5975C111.203 15.5975 110.713 15.9825 110.713 16.525C110.713 17.085 111.133 17.365 111.973 17.4525L113.023 17.5575C115.333 17.785 116.366 18.695 116.366 20.4275C116.366 22.1075 115.071 23.245 112.586 23.245C109.453 23.245 108.438 21.4425 108.298 20.5675H110.573C110.678 20.7775 111.168 21.5125 112.586 21.5125C113.618 21.5125 114.143 21.1275 114.143 20.55C114.143 19.955 113.828 19.64 112.883 19.535ZM124.974 21.005V23H122.769C120.757 23 119.794 22.02 119.794 20.165V16.0525H117.607V14.145H119.794V10.575H122.034V14.145H124.974V16.0525H122.034V19.5C122.034 20.5325 122.367 21.005 123.539 21.005H124.974ZM132.956 21.705C132.763 22.1075 132.063 23.1925 130.436 23.1925C128.318 23.1925 126.726 21.4775 126.726 18.5725C126.726 15.685 128.318 13.9525 130.436 13.9525C132.081 13.9525 132.763 15.055 132.938 15.4225V14.145H135.161V23H132.956V21.705ZM132.973 18.5725C132.973 17.015 132.238 15.9125 130.996 15.9125C129.718 15.9125 129.001 17.015 129.001 18.5725C129.001 20.1475 129.718 21.25 130.996 21.25C132.238 21.25 132.973 20.1475 132.973 18.5725ZM143.95 23L140.205 18.9575V23H138V10.12H140.205V17.8025L143.722 14.145H146.522L142.497 18.275L146.837 23H143.95ZM151.724 13.9175C154.261 13.9175 155.906 15.7375 155.906 18.555V18.9225H149.729C149.799 20.3225 150.569 21.355 151.899 21.355C153.106 21.355 153.544 20.69 153.684 20.4975H155.854C155.714 21.4075 154.751 23.2275 151.899 23.2275C149.186 23.2275 147.506 21.25 147.506 18.5725C147.506 15.825 149.169 13.9175 151.724 13.9175ZM151.724 15.6325C150.621 15.6325 149.956 16.3325 149.764 17.4525H153.649C153.439 16.2975 152.774 15.6325 151.724 15.6325ZM160.388 18.0475V23H158.166V14.145H160.388V15.4225C160.703 14.81 161.561 13.9525 162.978 13.9525C164.991 13.9525 166.321 15.37 166.321 17.645V23H164.081V18.0475C164.081 16.6825 163.381 15.9475 162.261 15.9475C161.088 15.9475 160.388 16.7175 160.388 18.0475Z" fill="white"/>
<g clip-path="url(#clip0_274_247)">
<path d="M25.9076 4.57807C29.1047 6.93151 31.3839 10.4776 32.0013 14.4218C32.2012 16.9656 32.3212 19.7796 31.2982 22.1562C31.2389 22.2968 31.1797 22.4373 31.1186 22.5821C29.3193 26.7592 26.6087 29.3153 22.4789 31.2355C19.3235 32.4165 14.9707 32.6422 11.8451 31.2968C11.7045 31.2376 11.5639 31.1783 11.4191 31.1173C7.24211 29.3179 4.686 26.6073 2.76579 22.4775C1.58419 19.3205 1.3608 14.9713 2.70445 11.8437C2.76245 11.7044 2.82046 11.5651 2.88023 11.4215C4.69302 7.15914 7.42608 4.65804 11.6345 2.71314C16.395 1.00012 21.7477 1.80816 25.9076 4.57807Z" fill="#020202"/>
<path d="M12.7802 6.45292C13.701 6.44567 13.701 6.44567 14.6405 6.43828C14.8342 6.43614 15.0278 6.43401 15.2273 6.43181C15.6616 6.43013 16.096 6.44114 16.5302 6.45292C16.943 6.8658 16.8537 7.46391 16.8987 8.02632C16.9222 8.31253 16.9456 8.59875 16.9698 8.89364C16.9945 9.2083 17.0191 9.52296 17.0438 9.83763C17.0696 10.1578 17.0956 10.478 17.1216 10.7982C17.19 11.6424 17.257 12.4866 17.3239 13.3309C17.3922 14.1918 17.4618 15.0527 17.5313 15.9135C17.6675 17.6036 17.8024 19.2939 17.9364 20.9842C17.9636 20.7761 17.9908 20.568 18.0187 20.3536C18.1201 19.5795 18.2219 18.8056 18.3241 18.0316C18.3681 17.697 18.412 17.3624 18.4557 17.0277C18.5186 16.5459 18.5822 16.0642 18.6459 15.5826C18.684 15.2929 18.722 15.0032 18.7612 14.7048C18.8739 13.9529 18.8739 13.9529 19.1083 13.0154C20.1911 13.0154 21.2739 13.0154 22.3895 13.0154C22.498 13.6403 22.6052 14.2653 22.7118 14.8904C22.7414 15.0602 22.771 15.23 22.8015 15.405C23.1154 17.2568 23.3362 19.1199 23.5614 20.9842C23.5815 20.7014 23.6016 20.4186 23.6222 20.1273C23.6967 19.082 23.7726 18.0368 23.8489 16.9916C23.8818 16.5385 23.9143 16.0854 23.9464 15.6323C23.9926 14.9824 24.0401 14.3326 24.0878 13.6828C24.102 13.479 24.1162 13.2751 24.1308 13.0651C24.2378 11.6359 24.2378 11.6359 24.4989 11.3748C25.0504 11.3578 25.6024 11.3552 26.1542 11.3602C26.6078 11.3633 26.6078 11.3633 27.0706 11.3666C27.3048 11.3693 27.5389 11.372 27.7802 11.3748C27.5525 13.6333 27.2076 15.876 26.8794 18.1216C26.5925 20.0883 26.314 22.0504 26.1395 24.031C24.67 24.031 23.2005 24.031 21.6864 24.031C21.377 21.6334 21.0677 19.2357 20.7489 16.7654C20.3622 19.1631 19.9755 21.5607 19.577 24.031C18.6272 24.1471 18.6272 24.1471 17.6581 24.2654C17.3621 24.3021 17.3621 24.3021 17.0601 24.3396C16.1749 24.4456 15.3143 24.5284 14.4208 24.4998C14.3434 24.1904 14.2661 23.881 14.1864 23.5623C13.9785 23.746 13.7707 23.9297 13.5565 24.1189C12.3665 25.0936 11.3625 25.3125 9.83399 25.2762C8.65698 25.1248 8.02687 24.4379 7.2284 23.6209C6.23687 22.2274 5.84928 20.8154 5.74891 19.1092C5.73652 18.9083 5.72414 18.7073 5.71137 18.5003C5.63557 16.1571 6.06635 14.4332 7.66694 12.6858C8.59891 11.8681 9.32098 11.7793 10.5536 11.785C10.817 11.7837 11.0805 11.7825 11.3519 11.7813C12.077 11.8435 12.077 11.8435 13.0145 12.3123C12.8985 9.41191 12.8985 9.41191 12.7802 6.45292Z" fill="#F8F8F8"/>
<path d="M11.7435 14.29C12.563 14.4241 12.9171 14.5335 13.4867 15.125C13.8544 16.228 13.803 17.3386 13.8236 18.4941C13.8397 18.8603 13.8397 18.8603 13.8561 19.2339C13.8819 20.9889 13.8819 20.9889 13.4224 21.6456C12.8802 22.1131 12.3992 22.3725 11.6996 22.5225C10.9233 22.3386 10.6749 22.1007 10.2054 21.4531C9.73024 20.2176 9.67196 18.9896 9.63416 17.6738C9.62607 17.5142 9.61799 17.3546 9.60967 17.1902C9.60225 16.2937 9.73411 15.7142 10.2769 15.0179C10.9086 14.4219 10.9086 14.4219 11.7435 14.29Z" fill="#050505"/>
</g>
<defs>
<clipPath id="clip0_274_247">
<rect width="30" height="30" fill="white" transform="translate(2 2)"/>
</clipPath>
</defs>
</svg>
