<svg width="152" height="35" viewBox="0 0 152 35" fill="none" xmlns="http://www.w3.org/2000/svg">
<path d="M15.3275 11.8169C18.9011 13.5227 23.083 13.5222 26.6515 11.8148C24.9371 15.3978 24.9451 19.5999 26.6716 23.1831C23.0974 21.4774 18.9147 21.4771 15.3461 23.1852C17.061 19.6019 17.0542 15.4005 15.3275 11.8169Z" stroke="white" stroke-opacity="0.35" stroke-width="1.48641"/>
<path d="M20.9561 27.6157C19.417 22.8352 15.643 19.0609 10.8662 17.5278C15.6604 15.9893 19.4452 12.1923 20.9736 7.38721C22.5136 12.1665 26.2872 15.9399 31.0635 17.4722C26.2678 19.0107 22.484 22.8088 20.9561 27.6157Z" stroke="white" stroke-width="1.48641"/>
<path fill-rule="evenodd" clip-rule="evenodd" d="M25.4263 17.5002C22.9665 17.5092 20.9753 19.5022 20.9753 21.9595C20.9753 19.4967 18.9751 17.5002 16.5078 17.5002C18.9675 17.4914 20.9588 15.4983 20.9588 13.041C20.9588 15.5038 22.959 17.5002 25.4263 17.5002Z" fill="white"/>
<path d="M44.883 23.1665V10.7415H54.7005V12.789H47.228V15.694H51.498V17.7415H47.228V23.1665H44.883ZM60.9212 21.8715C60.7287 22.274 60.0287 23.359 58.4012 23.359C56.2837 23.359 54.6912 21.644 54.6912 18.739C54.6912 15.8515 56.2837 14.119 58.4012 14.119C60.0462 14.119 60.7287 15.2215 60.9037 15.589V14.3115H63.1262V23.1665H60.9212V21.8715ZM60.9387 18.739C60.9387 17.1815 60.2037 16.079 58.9612 16.079C57.6837 16.079 56.9662 17.1815 56.9662 18.739C56.9662 20.314 57.6837 21.4165 58.9612 21.4165C60.2037 21.4165 60.9387 20.314 60.9387 18.739ZM72.4049 21.1715V23.1665H70.1999C68.1874 23.1665 67.2249 22.1865 67.2249 20.3315V16.219H65.0374V14.3115H67.2249V10.7415H69.4649V14.3115H72.4049V16.219H69.4649V19.6665C69.4649 20.699 69.7974 21.1715 70.9699 21.1715H72.4049ZM78.339 14.084C80.8765 14.084 82.5215 15.904 82.5215 18.7215V19.089H76.344C76.414 20.489 77.184 21.5215 78.514 21.5215C79.7215 21.5215 80.159 20.8565 80.299 20.664H82.469C82.329 21.574 81.3665 23.394 78.514 23.394C75.8015 23.394 74.1215 21.4165 74.1215 18.739C74.1215 15.9915 75.784 14.084 78.339 14.084ZM78.339 15.799C77.2365 15.799 76.5715 16.499 76.379 17.619H80.264C80.054 16.464 79.389 15.799 78.339 15.799ZM88.5958 14.084C91.1858 14.084 92.9533 15.9915 92.9533 18.739C92.9533 21.4515 91.1858 23.394 88.5958 23.394C86.0233 23.394 84.2558 21.4515 84.2558 18.739C84.2558 15.9915 86.0233 14.084 88.5958 14.084ZM88.5958 21.434C89.9608 21.434 90.6783 20.2615 90.6783 18.739C90.6783 17.2165 89.9608 16.044 88.5958 16.044C87.2308 16.044 86.5133 17.2165 86.5133 18.739C86.5133 20.244 87.2308 21.434 88.5958 21.434ZM97.4794 18.1265V23.1665H95.2569V14.3115H97.4794V15.519C97.7769 14.9415 98.5994 14.119 99.9819 14.119C101.347 14.119 102.362 14.784 102.887 15.834C103.219 15.1515 104.059 14.119 105.757 14.119C107.874 14.119 109.152 15.624 109.152 17.724V23.1665H106.912V18.1265C106.912 16.919 106.299 16.114 105.127 16.114C103.954 16.114 103.307 16.954 103.307 18.1265V23.1665H101.067V18.1265C101.067 16.919 100.437 16.114 99.2819 16.114C98.1094 16.114 97.4794 16.954 97.4794 18.1265ZM115.612 14.084C118.149 14.084 119.794 15.904 119.794 18.7215V19.089H113.617C113.687 20.489 114.457 21.5215 115.787 21.5215C116.994 21.5215 117.432 20.8565 117.572 20.664H119.742C119.602 21.574 118.639 23.394 115.787 23.394C113.074 23.394 111.394 21.4165 111.394 18.739C111.394 15.9915 113.057 14.084 115.612 14.084ZM115.612 15.799C114.509 15.799 113.844 16.499 113.652 17.619H117.537C117.327 16.464 116.662 15.799 115.612 15.799ZM128.494 21.1715V23.1665H126.289C124.276 23.1665 123.314 22.1865 123.314 20.3315V16.219H121.126V14.3115H123.314V10.7415H125.554V14.3115H128.494V16.219H125.554V19.6665C125.554 20.699 125.886 21.1715 127.059 21.1715H128.494ZM134.428 14.084C136.965 14.084 138.61 15.904 138.61 18.7215V19.089H132.433C132.503 20.489 133.273 21.5215 134.603 21.5215C135.81 21.5215 136.248 20.8565 136.388 20.664H138.558C138.418 21.574 137.455 23.394 134.603 23.394C131.89 23.394 130.21 21.4165 130.21 18.739C130.21 15.9915 131.873 14.084 134.428 14.084ZM134.428 15.799C133.325 15.799 132.66 16.499 132.468 17.619H136.353C136.143 16.464 135.478 15.799 134.428 15.799ZM143.092 18.494V23.1665H140.87V14.3115H143.092V15.7465C143.32 15.1865 144.037 14.259 145.857 14.259H147.467V16.4815H145.525C143.792 16.4815 143.092 17.129 143.092 18.494Z" fill="white"/>
</svg>
