<svg width="153" height="37" viewBox="0 0 153 37" fill="none" xmlns="http://www.w3.org/2000/svg">
<path fill-rule="evenodd" clip-rule="evenodd" d="M18.0788 36.1574C18.0427 26.1851 9.96243 18.1122 0 18.1122C9.98465 18.1122 18.0788 10.003 18.0788 0C18.1148 9.9723 26.1952 18.0452 36.1576 18.0452C26.1728 18.0452 18.0788 26.1544 18.0788 36.1574Z" fill="url(#paint0_linear_273_236)"/>
<path d="M39.9945 25.894V9.92911H43.6893V22.8835H51.6946V25.894H39.9945ZM58.6407 26.0765C57.622 26.0765 56.7097 25.8788 55.9039 25.4835C55.1132 25.0882 54.4975 24.4876 54.0565 23.6818C53.6156 22.8607 53.3951 21.8192 53.3951 20.5572V13.6239H56.953V20.0326C56.953 21.0513 57.1659 21.804 57.5916 22.2905C58.0325 22.7619 58.6483 22.9975 59.439 22.9975C59.9863 22.9975 60.4729 22.8835 60.8986 22.6554C61.3244 22.4122 61.6589 22.0473 61.9021 21.5607C62.1454 21.0589 62.2671 20.4356 62.2671 19.6905V13.6239H65.8249V25.894H62.4495V22.5186L63.0653 23.4993C62.6548 24.3508 62.0466 24.997 61.2407 25.4379C60.4501 25.8636 59.5834 26.0765 58.6407 26.0765ZM84.8352 13.4414C85.8083 13.4414 86.6673 13.6391 87.4124 14.0344C88.1726 14.4145 88.7656 15.0075 89.1913 15.8133C89.6322 16.604 89.8527 17.6227 89.8527 18.8695V25.894H86.2948V19.4168C86.2948 18.4285 86.0895 17.6987 85.679 17.2274C85.2685 16.756 84.6907 16.5203 83.9457 16.5203C83.4287 16.5203 82.965 16.642 82.5545 16.8853C82.1439 17.1133 81.8246 17.463 81.5966 17.9344C81.3685 18.4057 81.2544 19.0063 81.2544 19.7361V25.894H77.6965V19.4168C77.6965 18.4285 77.4913 17.6987 77.0808 17.2274C76.6854 16.756 76.1153 16.5203 75.3702 16.5203C74.8533 16.5203 74.3895 16.642 73.979 16.8853C73.5685 17.1133 73.2492 17.463 73.0211 17.9344C72.793 18.4057 72.679 19.0063 72.679 19.7361V25.894H69.1211V13.6239H72.5194V16.9765L71.8808 15.9958C72.3065 15.1595 72.9071 14.5285 73.6825 14.1028C74.4732 13.6619 75.3702 13.4414 76.3737 13.4414C77.4989 13.4414 78.4796 13.7303 79.3159 14.3081C80.1673 14.8706 80.7299 15.7373 81.0036 16.9081L79.7492 16.566C80.1597 15.6081 80.8135 14.8478 81.7106 14.2853C82.6229 13.7227 83.6644 13.4414 84.8352 13.4414ZM93.0418 25.894V13.6239H96.5997V25.894H93.0418ZM94.8207 11.9133C94.1669 11.9133 93.6348 11.7233 93.2242 11.3431C92.8137 10.963 92.6084 10.4917 92.6084 9.92911C92.6084 9.36654 92.8137 8.89519 93.2242 8.51508C93.6348 8.13496 94.1669 7.9449 94.8207 7.9449C95.4745 7.9449 96.0067 8.12736 96.4172 8.49227C96.8277 8.84198 97.033 9.29812 97.033 9.86069C97.033 10.4537 96.8277 10.9478 96.4172 11.3431C96.0219 11.7233 95.4897 11.9133 94.8207 11.9133ZM107.36 13.4414C108.333 13.4414 109.199 13.6391 109.96 14.0344C110.735 14.4145 111.343 15.0075 111.784 15.8133C112.225 16.604 112.446 17.6227 112.446 18.8695V25.894H108.888V19.4168C108.888 18.4285 108.667 17.6987 108.226 17.2274C107.801 16.756 107.192 16.5203 106.402 16.5203C105.839 16.5203 105.33 16.642 104.874 16.8853C104.433 17.1133 104.083 17.4706 103.825 17.9572C103.581 18.4437 103.46 19.0671 103.46 19.8274V25.894H99.9017V13.6239H103.3V17.0221L102.661 15.9958C103.102 15.1747 103.733 14.5437 104.554 14.1028C105.375 13.6619 106.31 13.4414 107.36 13.4414ZM123.197 25.894V23.4993L122.969 22.9747V18.687C122.969 17.9268 122.733 17.3338 122.262 16.9081C121.806 16.4823 121.099 16.2695 120.141 16.2695C119.487 16.2695 118.841 16.3759 118.202 16.5888C117.579 16.7864 117.047 17.0601 116.606 17.4098L115.329 14.9239C115.998 14.4525 116.803 14.0876 117.746 13.8291C118.689 13.5706 119.647 13.4414 120.62 13.4414C122.49 13.4414 123.942 13.8823 124.976 14.7642C126.01 15.6461 126.527 17.0221 126.527 18.8923V25.894H123.197ZM119.457 26.0765C118.499 26.0765 117.678 25.9169 116.993 25.5976C116.309 25.263 115.785 24.8145 115.42 24.2519C115.055 23.6894 114.872 23.0584 114.872 22.359C114.872 21.6291 115.047 20.9905 115.397 20.4432C115.762 19.8958 116.332 19.4701 117.107 19.166C117.883 18.8467 118.894 18.687 120.141 18.687H123.402V20.7625H120.529C119.692 20.7625 119.114 20.8993 118.795 21.173C118.491 21.4467 118.339 21.7888 118.339 22.1993C118.339 22.6554 118.514 23.0204 118.864 23.294C119.229 23.5525 119.723 23.6818 120.346 23.6818C120.939 23.6818 121.471 23.5449 121.943 23.2712C122.414 22.9823 122.756 22.5642 122.969 22.0168L123.516 23.659C123.258 24.4496 122.786 25.0502 122.102 25.4607C121.418 25.8712 120.536 26.0765 119.457 26.0765ZM129.747 25.894V13.6239H133.145V17.0905L132.666 16.087C133.031 15.2203 133.616 14.5665 134.422 14.1256C135.228 13.6695 136.209 13.4414 137.364 13.4414V16.7256C137.212 16.7104 137.076 16.7028 136.954 16.7028C136.832 16.6876 136.703 16.68 136.566 16.68C135.593 16.68 134.802 16.9613 134.194 17.5239C133.601 18.0712 133.305 18.9303 133.305 20.1011V25.894H129.747ZM141.454 30.5011C140.815 30.5011 140.184 30.4022 139.561 30.2046C138.938 30.0069 138.428 29.7332 138.033 29.3835L139.333 26.8519C139.607 27.0952 139.918 27.2853 140.268 27.4221C140.633 27.559 140.99 27.6274 141.34 27.6274C141.842 27.6274 142.237 27.5057 142.526 27.2625C142.83 27.0344 143.104 26.6467 143.347 26.0993L143.986 24.594L144.259 24.2063L148.661 13.6239H152.082L146.54 26.6467C146.145 27.635 145.689 28.4104 145.172 28.973C144.67 29.5356 144.107 29.9309 143.484 30.159C142.876 30.387 142.199 30.5011 141.454 30.5011ZM143.552 26.373L138.079 13.6239H141.75L145.993 23.887L143.552 26.373Z" fill="white" fill-opacity="0.9"/>
<defs>
<linearGradient id="paint0_linear_273_236" x1="0" y1="18.0787" x2="36.1576" y2="18.0787" gradientUnits="userSpaceOnUse">
<stop offset="0.15" stop-color="white" stop-opacity="0.7"/>
<stop offset="0.45" stop-color="white" stop-opacity="0.8"/>
<stop offset="0.65" stop-color="white" stop-opacity="0.9"/>
<stop offset="1" stop-color="white"/>
</linearGradient>
</defs>
</svg>
