<svg width="300" height="72" viewBox="0 0 300 72" fill="none" xmlns="http://www.w3.org/2000/svg">
<g clip-path="url(#clip0_267_92)">
<mask id="mask0_267_92" style="mask-type:luminance" maskUnits="userSpaceOnUse" x="0" y="0" width="300" height="72">
<path d="M300 0H0V72H300V0Z" fill="white"/>
</mask>
<g mask="url(#mask0_267_92)">
<path d="M35.7812 9.33594H59.8829V36.0938L35.7812 9.33594ZM10.1562 35.5859L33.3595 62.5H10.1562V35.5859Z" fill="white"/>
<path d="M10.2734 25.0391H10.0391C10.0391 19.6745 11.4974 15.7161 14.4141 13.1641C17.3307 10.612 21.8229 9.33594 27.8906 9.33594L59.8828 48.1641C59.8828 53.3203 58.4896 57.0052 55.7031 59.2188C52.9948 61.3802 48.5677 62.4609 42.4219 62.4609L10.2734 25.0391Z" fill="#3665E4"/>
<path d="M88.2329 25.802C85.4379 25.802 83.8039 26.92 83.8039 28.64C83.8039 30.403 85.3519 31.22 87.8029 31.564L90.8559 31.951C97.7359 32.811 102.251 35.09 102.251 41.669C102.251 47.474 97.8219 51.559 89.7809 51.559C80.1059 51.559 76.4079 46.184 75.5049 42.142H83.2879C83.8469 43.518 85.7389 45.582 89.7809 45.582C93.0489 45.582 94.7259 44.292 94.7259 42.271C94.7259 40.078 93.0059 39.304 90.4259 38.917L87.3299 38.487C80.5789 37.584 76.3649 34.961 76.3649 28.941C76.3649 23.222 81.2669 19.911 88.2329 19.911C97.3919 19.911 100.66 24.727 101.52 28.339H94.0379C93.3929 27.264 91.7589 25.802 88.2329 25.802ZM114.419 38.616V51H107.496V28.726H114.419V31.607C115.193 30.274 117.3 28.253 120.783 28.253C125.814 28.253 129.039 31.865 129.039 37.326V51H122.073V38.616C122.073 35.95 120.654 34.359 118.289 34.359C115.881 34.359 114.419 35.993 114.419 38.616ZM149.065 48.076C148.678 48.893 146.958 51.473 143.002 51.473C137.713 51.473 133.8 47.13 133.8 39.863C133.8 32.596 137.713 28.296 143.045 28.296C147.001 28.296 148.635 30.833 148.979 31.521V28.726H155.902V51H149.065V48.076ZM149.065 39.863C149.065 36.38 147.517 34.23 144.98 34.23C142.357 34.23 140.809 36.38 140.809 39.863C140.809 43.346 142.357 45.539 144.98 45.539C147.517 45.539 149.065 43.346 149.065 39.863ZM168.841 47.99V59.6H161.918V28.726H168.841V31.951C169.142 31.263 171.077 28.253 175.291 28.253C180.537 28.253 184.493 32.424 184.493 39.863C184.493 47.302 180.537 51.473 175.291 51.473C171.077 51.473 169.228 48.678 168.841 47.99ZM168.755 39.863C168.755 43.26 170.432 45.539 173.098 45.539C175.807 45.539 177.441 43.26 177.441 39.863C177.441 36.466 175.807 34.187 173.098 34.187C170.432 34.187 168.755 36.466 168.755 39.863Z" fill="white"/>
<path d="M199.572 42.7441L196.949 42.4861C191.918 41.9701 188.177 39.9921 188.177 35.2621C188.177 30.7901 192.09 28.1241 197.938 28.1241C205.893 28.1241 208 32.2091 208.387 34.4881H201.507C201.249 34.1871 200.303 33.0691 198.024 33.0691C196.132 33.0691 195.1 33.8001 195.1 34.9181C195.1 35.9501 195.874 36.5091 197.508 36.6811L199.83 36.8961C206.151 37.3261 208.946 39.6481 208.946 44.2491C208.946 48.7641 205.506 51.6021 198.755 51.6021C190.585 51.6021 188.091 47.1301 187.747 44.8081H194.842C195.057 45.2381 196.046 46.5711 198.755 46.5711C200.819 46.5711 201.98 45.8831 201.98 44.7221C201.98 43.6041 201.421 42.9161 199.572 42.7441ZM220.534 38.7021V51.0001H213.611V19.3521H220.534V31.6501C221.308 30.3171 223.415 28.2531 226.898 28.2531C231.929 28.2531 235.154 31.9081 235.154 37.4121V51.0001H228.188V38.7021C228.188 35.9931 226.769 34.3591 224.404 34.3591C221.996 34.3591 220.534 36.0361 220.534 38.7021ZM251.137 28.1671C257.759 28.1671 262.489 32.7681 262.489 39.8631C262.489 46.9151 257.759 51.5591 251.137 51.5591C244.515 51.5591 239.828 46.9151 239.828 39.8631C239.828 32.7681 244.515 28.1671 251.137 28.1671ZM251.137 45.6681C254.018 45.6681 255.48 43.1741 255.48 39.8631C255.48 36.5951 254.018 34.1011 251.137 34.1011C248.299 34.1011 246.794 36.5951 246.794 39.8631C246.794 43.1741 248.256 45.6681 251.137 45.6681ZM283.927 44.8511V51.0001H277.692C272.575 51.0001 270.21 48.5061 270.21 43.9481V34.531H265.007V28.7261H270.21V20.4701H277.176V28.7261H283.927V34.531H277.176V41.5401C277.176 43.8191 277.907 44.8511 280.487 44.8511H283.927Z" fill="#3665E4"/>
</g>
</g>
<defs>
<clipPath id="clip0_267_92">
<rect width="300" height="72" fill="white"/>
</clipPath>
</defs>
</svg>
